<svg width="120" height="32" viewBox="0 0 120 32" fill="none" xmlns="http://www.w3.org/2000/svg">
<path d="M2.64041 29.9121C2.06377 29.67 1.51748 29.3522 1.00153 28.9589C0.485593 28.5352 0.151748 28.1872 0 27.9149C0 27.6426 0.0455243 27.461 0.136573 27.3702C0.227622 27.2492 0.485593 27.2038 0.910487 27.234C1.36573 27.234 2.09412 27.2946 3.09565 27.4156C3.45985 27.4156 3.91509 27.3853 4.46138 27.3248C5.00768 27.2643 5.50844 27.1735 5.96369 27.0525C6.44928 26.9314 6.72243 26.7801 6.78313 26.5986C6.93487 26.5986 6.96522 26.5532 6.87417 26.4624C6.78313 26.3414 6.6769 26.2203 6.5555 26.0993C6.43411 26.0993 6.29753 26.0539 6.14578 25.9631C5.99404 25.8421 5.85746 25.7816 5.73607 25.7816C5.73607 25.6303 5.58432 25.4638 5.28082 25.2823C5.00768 25.0704 4.71936 24.904 4.41586 24.783C3.74817 24.2383 3.17153 23.7541 2.68594 23.3305C2.20034 22.8766 2.01825 22.574 2.13964 22.4227C2.13964 22.3017 2.13964 22.2411 2.13964 22.2411C2.13964 22.2109 2.13964 22.1957 2.13964 22.1957C1.9272 22.1957 1.6844 21.8931 1.41125 21.2879C1.16846 20.6827 1.04706 20.1381 1.04706 19.6539C1.04706 19.2908 1.15328 18.8369 1.36573 18.2922C1.57818 17.7173 1.8665 17.1272 2.23069 16.522C2.59489 15.9168 2.97426 15.4175 3.3688 15.0241C3.91509 14.5097 4.59796 13.965 5.4174 13.3901C6.23683 12.7849 7.0411 12.2553 7.83018 11.8014C8.64962 11.3173 9.33249 10.9995 9.87878 10.8482C10.4251 10.6364 10.9258 10.5305 11.3811 10.5305C11.8667 10.5305 12.2916 10.6364 12.6558 10.8482C12.9593 10.9995 13.2324 11.2265 13.4752 11.5291C13.7483 11.8014 13.976 12.0889 14.1581 12.3915C14.3705 12.6638 14.5071 12.9059 14.5678 13.1177C14.5678 13.4809 14.5374 13.8894 14.4767 14.3433C14.416 14.7669 14.325 15.1452 14.2036 15.478C14.1125 15.8109 13.9608 15.9773 13.7483 15.9773C13.7483 15.9773 13.7028 15.9924 13.6118 16.0227C13.5511 16.0227 13.5207 16.0983 13.5207 16.2496C13.5207 16.5522 13.2931 16.9002 12.8379 17.2936C12.2612 17.687 11.7605 17.9291 11.3356 18.0199C10.9107 18.0804 10.6527 17.9139 10.5616 17.5206C10.4706 17.3995 10.4099 17.2936 10.3795 17.2028C10.3492 17.1121 10.2733 17.0667 10.1519 17.0667C10.1519 17.0667 10.1064 17.0213 10.0154 16.9305C9.92431 16.8397 9.87878 16.6884 9.87878 16.4766C9.87878 16.3556 9.92431 16.2496 10.0154 16.1589C10.1064 16.0378 10.1519 15.9773 10.1519 15.9773C10.3037 15.9773 10.5009 15.8109 10.7437 15.478C10.9865 15.1149 11.199 14.7366 11.3811 14.3433C11.5935 13.9196 11.6998 13.6322 11.6998 13.4809C11.6998 13.2993 11.6694 13.1934 11.6087 13.1631C11.5784 13.1329 11.4418 13.1177 11.199 13.1177C10.7741 13.2993 10.2581 13.5414 9.65116 13.844C9.04417 14.1466 8.46753 14.4492 7.92123 14.7518C7.40529 15.0241 7.02592 15.2813 6.78313 15.5234C6.66173 15.7352 6.58585 15.8714 6.5555 15.9319C6.52515 15.9622 6.44928 15.9773 6.32788 15.9773C6.32788 15.8563 6.22166 15.9168 6.00921 16.1589C5.82712 16.3707 5.58432 16.6733 5.28082 17.0667C5.00768 17.46 4.73453 17.8534 4.46138 18.2468C4.21859 18.6099 4.03649 18.8823 3.91509 19.0638C3.85439 19.1243 3.77852 19.3059 3.68747 19.6085C3.62677 19.8809 3.59642 20.1381 3.59642 20.3801C3.47502 20.7433 3.4902 21.0005 3.64195 21.1518C3.79369 21.2728 4.12754 21.5452 4.64348 21.9688C5.70572 22.7556 6.54033 23.4061 7.14732 23.9206C7.75431 24.435 8.20955 24.8586 8.51305 25.1915C8.81655 25.5244 8.99864 25.8269 9.05934 26.0993C9.60563 27.0071 9.77256 27.7031 9.56011 28.1872C9.34766 28.6714 8.83172 29.095 8.01228 29.4582C7.70879 29.6095 7.20802 29.7305 6.50998 29.8213C5.81194 29.9121 5.09873 29.9574 4.37034 29.9574C3.64195 29.9877 3.06531 29.9726 2.64041 29.9121Z" fill="#FCFCFC"/>
<path d="M15.6977 28.0965C15.5763 27.8544 15.4246 27.6728 15.2425 27.5518C15.0604 27.4005 14.9693 27.2643 14.9693 27.1433C14.9693 27.0222 14.9542 26.9012 14.9238 26.7801C14.9238 26.6288 14.8631 26.4927 14.7417 26.3716C14.59 26.1901 14.6051 25.7816 14.7872 25.1461C14.9693 24.4804 15.2728 23.6785 15.6977 22.7404C16.1226 21.7721 16.6234 20.7584 17.2 19.6993C17.4428 19.4572 17.6856 19.1395 17.9284 18.7461C18.1712 18.3527 18.3533 18.0955 18.4747 17.9745C18.4747 17.8534 18.5202 17.7475 18.6113 17.6567C18.7023 17.5357 18.8085 17.4752 18.9299 17.4752V17.2028C18.9299 17.0515 19.0665 16.7943 19.3397 16.4312C19.6432 16.0681 20.0074 15.6747 20.4322 15.2511C20.8571 14.7972 21.2972 14.3735 21.7525 13.9801C22.2077 13.5565 22.5871 13.2539 22.8906 13.0723C23.5279 12.6487 24.1804 12.3915 24.8481 12.3007C25.5461 12.2099 26.138 12.3612 26.6236 12.7546C26.7146 12.8454 26.8664 12.9967 27.0788 13.2085C27.2912 13.4203 27.534 13.6624 27.8072 13.9348C28.1107 14.1768 28.4142 14.434 28.7177 14.7064L30.4021 16.2043L29.5826 18.4738C29.1881 19.6842 29.0819 20.7433 29.264 21.6511C29.4764 22.5589 29.7799 23.3456 30.1745 24.0113C30.3262 24.3442 30.6297 24.6619 31.0849 24.9645C31.5705 25.2671 32.0258 25.4487 32.4507 25.5092C32.6935 25.5395 32.9211 25.6303 33.1335 25.7816C33.346 25.9329 33.4522 26.1749 33.4522 26.5078C33.4522 26.8104 33.3915 27.0525 33.2701 27.234C33.1487 27.4156 32.9363 27.5366 32.6328 27.5972C31.6312 27.7182 30.6904 27.4761 29.8103 26.8709C28.9605 26.2657 28.1714 25.2671 27.443 23.8752C27.3216 23.6936 27.1547 23.3608 26.9422 22.8766C26.7601 22.3622 26.6539 22.0293 26.6236 21.878C26.5022 22.0293 26.2745 22.3168 25.9407 22.7404C25.6068 23.1338 25.3489 23.4213 25.1668 23.6028C23.012 25.7816 21.1455 27.2492 19.5673 28.0057C18.0195 28.7319 16.7296 28.7622 15.6977 28.0965ZM17.3366 25.5546C17.3366 25.7664 17.6553 25.7664 18.2926 25.5546C18.9603 25.3125 19.6735 24.8889 20.4322 24.2837C21.4641 23.4061 22.496 22.4378 23.5279 21.3787C24.5901 20.3196 25.4399 19.3362 26.0773 18.4284L27.0788 16.7943C26.7753 16.0983 26.4415 15.6293 26.0773 15.3872C25.7434 15.1149 25.4551 14.9787 25.2123 14.9787C24.8178 14.9787 24.2259 15.3418 23.4369 16.0681C22.6781 16.7943 21.8587 17.7626 20.9785 18.973C20.0984 20.1835 19.2638 21.5149 18.4747 22.9674C18.1712 23.5726 17.8981 24.1626 17.6553 24.7376C17.4428 25.2823 17.3366 25.5546 17.3366 25.5546Z" fill="#FCFCFC"/>
<path d="M49.364 29.1858C49.0605 29.1858 48.7419 29.0194 48.408 28.6865C48.1045 28.3537 47.8314 27.9452 47.5886 27.461C47.3761 26.9466 47.2699 26.4624 47.2699 26.0085C47.2699 25.5546 47.3761 24.7073 47.5886 23.4667C47.8314 22.226 48.1197 20.9702 48.4535 19.6993C48.6963 18.9125 48.7722 18.4586 48.6812 18.3376C48.5901 18.2165 48.1804 18.383 47.452 18.8369C47.0271 19.0487 46.6477 19.2756 46.3139 19.5177C45.9801 19.7296 45.6917 19.9716 45.4489 20.244C45.2972 20.365 45.0696 20.5617 44.7661 20.834C44.4626 21.1064 44.1439 21.3636 43.8101 21.6057C43.4155 21.9083 42.9147 22.3319 42.3078 22.8766C41.7008 23.4213 41.0938 23.966 40.4868 24.5106C39.9101 25.0553 39.4701 25.479 39.1666 25.7816C39.1059 25.9026 39.0148 26.0085 38.8934 26.0993C38.772 26.1901 38.6355 26.2506 38.4837 26.2809C38.332 26.2809 38.165 26.2506 37.9829 26.1901C37.6491 26.0993 37.3304 25.9026 37.0269 25.6C36.7538 25.2974 36.6172 24.9494 36.6172 24.556C36.6172 24.2534 36.7386 23.739 36.9814 23.0128C37.2242 22.2563 37.5429 21.3485 37.9374 20.2894C38.3623 19.2303 38.8479 18.1106 39.3942 16.9305C39.4852 16.7792 39.5611 16.5976 39.6218 16.3858C39.6825 16.1437 39.728 15.8865 39.7584 15.6142C39.8191 15.3418 39.8494 15.0846 39.8494 14.8426C39.8494 14.6913 39.8646 14.54 39.895 14.3887C39.9557 14.2071 40.0164 14.0407 40.0771 13.8894C40.1681 13.7078 40.244 13.5868 40.3047 13.5262C40.4261 13.2842 40.6385 13.2236 40.942 13.3447C41.2455 13.4355 41.5035 13.6473 41.7159 13.9801C42.1712 14.4038 42.3988 14.9333 42.3988 15.5688C42.4292 16.2043 42.2774 16.991 41.9436 17.9291C41.8222 18.1409 41.7159 18.3527 41.6249 18.5645C41.5642 18.7461 41.5035 18.9125 41.4428 19.0638C41.3821 19.1849 41.3366 19.2908 41.3062 19.3816C41.2759 19.4421 41.2607 19.4723 41.2607 19.4723C41.3821 19.4723 41.6552 19.3362 42.0801 19.0638C42.505 18.7915 43.0058 18.4889 43.5824 18.156C44.0377 17.8232 44.4322 17.5206 44.7661 17.2482C45.1303 16.9456 45.4338 16.7187 45.6766 16.5674C45.9194 16.3858 46.0711 16.295 46.1318 16.295C46.2532 16.295 46.4049 16.2496 46.587 16.1589C46.7691 16.0681 46.9209 15.9622 47.0423 15.8411C47.1637 15.7201 47.2547 15.6596 47.3154 15.6596C47.4065 15.6293 47.452 15.6142 47.452 15.6142C47.452 15.6142 47.5127 15.6142 47.6341 15.6142C47.7555 15.5839 47.8769 15.5083 47.9983 15.3872C48.2411 15.2057 48.5598 15.1603 48.9543 15.2511C49.3488 15.3116 49.713 15.4629 50.0469 15.705C50.3807 15.947 50.5477 16.2194 50.5477 16.522C50.5477 16.643 50.578 16.7489 50.6387 16.8397C50.7298 16.9002 50.7753 16.9305 50.7753 16.9305C51.0181 16.9305 51.1698 17.3087 51.2305 18.0652C51.3216 18.8217 51.2457 19.548 51.0029 20.244C51.0029 20.6979 50.9119 21.2426 50.7298 21.878C50.578 22.5135 50.4414 23.1187 50.32 23.6936C50.0772 24.4501 49.9103 25.1158 49.8193 25.6908C49.7282 26.2657 49.713 26.7499 49.7737 27.1433C49.8344 27.5366 49.9407 27.8544 50.0924 28.0965C50.2138 28.3083 50.2138 28.5504 50.0924 28.8227C49.971 29.0648 49.7282 29.1858 49.364 29.1858Z" fill="#FCFCFC"/>
<path d="M59.8435 32C58.842 31.8487 58.1591 31.4704 57.7949 30.8652C57.4611 30.2903 57.3852 29.3976 57.5673 28.1872C57.7494 27.6123 57.8556 27.0979 57.886 26.644C57.9467 26.1598 58.0832 25.8572 58.2957 25.7362C58.2957 25.7362 58.3109 25.6908 58.3412 25.6C58.4019 25.5092 58.3867 25.4184 58.2957 25.3277C58.2957 24.9343 58.4323 24.3896 58.7054 23.6936C58.7661 23.5121 58.842 23.3002 58.933 23.0582C59.0544 22.7858 59.1151 22.6496 59.1151 22.6496C58.9634 22.4076 58.9634 22.2109 59.1151 22.0596C59.2669 21.9083 59.4186 21.7721 59.5704 21.6511C59.7525 21.4998 59.7676 21.3333 59.6159 21.1518C59.5552 21.0307 59.6311 20.7584 59.8435 20.3348C60.056 19.8809 60.2988 19.4118 60.5719 18.9277C60.845 18.4435 61.0271 18.0652 61.1182 17.7929C61.1182 17.7324 61.1941 17.5206 61.3458 17.1574C61.4976 16.7943 61.6797 16.3707 61.8921 15.8865C62.1046 15.4024 62.3018 14.9636 62.4839 14.5702C62.6964 14.1768 62.8329 13.9196 62.8936 13.7986C63.1971 13.6473 63.0757 13.5414 62.5295 13.4809C61.9832 13.4203 61.4065 13.4052 60.7995 13.4355C59.8587 13.4052 59.1 13.3598 58.5233 13.2993C57.977 13.2388 57.5218 13.1026 57.1576 12.8908C56.7934 12.4671 56.6568 12.1645 56.7479 11.983C56.8693 11.7712 57.2335 11.6501 57.8404 11.6199C58.235 11.5896 58.5385 11.5745 58.7509 11.5745C58.9937 11.5745 59.2972 11.5593 59.6614 11.5291C60.056 11.4686 60.6629 11.3929 61.4824 11.3021L63.8041 11.1206L63.9407 10.3489C64.1835 9.95556 64.3808 9.60757 64.5325 9.30496C64.7146 8.9721 64.8664 8.63924 64.9878 8.30638C65.1092 7.97352 65.2002 7.62553 65.2609 7.26241C65.2609 7.26241 65.3975 7.02033 65.6706 6.53617C65.9438 6.02175 66.1107 5.4922 66.1714 4.94752C66.5356 4.34232 66.8543 3.79764 67.1274 3.31348C67.4006 2.79905 67.5675 2.48132 67.6282 2.36028C67.962 2.08794 68.1896 1.95177 68.311 1.95177C68.4628 1.95177 68.7663 2.10307 69.2215 2.40567C69.4947 2.55697 69.7375 2.73853 69.9499 2.95035C70.1624 3.16218 70.2989 3.38913 70.3596 3.6312C70.4203 3.84303 70.3293 4.05485 70.0865 4.26667C70.0258 4.38771 69.9347 4.61466 69.8133 4.94752C69.6919 5.25012 69.6009 5.50733 69.5402 5.71915C69.3581 5.93097 69.1305 6.27896 68.8573 6.76312C68.6145 7.21702 68.4476 7.68605 68.3566 8.17021C68.1138 8.68463 67.8861 9.15366 67.6737 9.5773C67.4613 9.97069 67.2943 10.1674 67.1729 10.1674C67.2336 10.47 67.4157 10.6213 67.7192 10.6213C68.0227 10.591 68.5235 10.5608 69.2215 10.5305C69.7982 10.47 70.1927 10.4095 70.4052 10.3489C70.648 10.2582 70.9211 10.2884 71.2246 10.4397C71.3763 10.6515 71.4977 10.8936 71.5888 11.166C71.6798 11.4383 71.695 11.6955 71.6343 11.9376C71.604 12.1494 71.4826 12.3007 71.2701 12.3915C71.1184 12.3915 70.7997 12.4823 70.3141 12.6638C69.8589 12.8151 69.2822 12.9059 68.5842 12.9362L66.1714 13.1631L65.3975 14.7064C65.185 15.0998 65.0029 15.4629 64.8512 15.7957C64.6994 16.0983 64.5932 16.2799 64.5325 16.3404C64.5325 16.522 64.4263 16.7943 64.2139 17.1574C64.0318 17.5206 63.8345 17.9139 63.622 18.3376C63.4399 18.852 63.2275 19.321 62.9847 19.7447C62.7722 20.1683 62.666 20.3801 62.666 20.3801C62.5446 20.3801 62.4839 20.4709 62.4839 20.6525C62.6357 21.0156 62.5901 21.2879 62.3473 21.4695C62.1956 21.5603 62.059 21.6965 61.9376 21.878C61.8466 22.0293 61.8011 22.105 61.8011 22.105C61.9225 22.226 61.9376 22.3773 61.8466 22.5589C61.7859 22.7404 61.6948 22.9371 61.5734 23.1489C61.5734 23.391 61.4976 23.739 61.3458 24.1929C61.2244 24.6468 61.0878 25.0704 60.9361 25.4638C60.9664 26.0085 60.9968 26.3565 61.0271 26.5078C61.0575 26.6591 61.1334 26.7196 61.2548 26.6894C61.4065 26.7196 61.5431 26.7196 61.6645 26.6894C61.7859 26.6591 61.9073 26.644 62.0287 26.644C62.4536 26.4624 62.226 27.5215 61.3458 29.8213C60.8602 30.5778 60.5264 31.1225 60.3443 31.4553C60.1622 31.8184 59.9953 32 59.8435 32Z" fill="#FCFCFC"/>
<path d="M75.5974 28.0057C74.9601 28.1267 74.5504 28.1721 74.3683 28.1418C74.2165 28.0813 73.9737 27.8998 73.6399 27.5972C73.1543 27.3551 72.7446 27.0525 72.4107 26.6894C72.1072 26.3262 71.8796 25.948 71.7279 25.5546C71.6065 25.131 71.5609 24.783 71.5913 24.5106C71.6823 23.4515 71.9403 22.3168 72.3652 21.1064C72.7901 19.896 73.306 18.731 73.913 17.6113C74.52 16.4917 75.1725 15.5385 75.8706 14.7518C76.599 13.9348 77.297 13.4052 77.9647 13.1631C78.5717 12.921 79.1483 12.8303 79.6946 12.8908C80.2409 12.9513 80.6354 13.2388 80.8782 13.7532C81.3335 14.6307 81.2273 15.1905 80.5596 15.4326C80.4685 15.4326 80.3623 15.478 80.2409 15.5688C80.1195 15.6293 80.0588 15.7201 80.0588 15.8411C80.1802 15.9017 80.514 15.9168 81.0603 15.8865C81.6066 15.826 82.1529 15.7352 82.6992 15.6142C83.2759 15.4629 83.6552 15.3116 83.8373 15.1603C84.0194 15.0695 84.156 15.0241 84.247 15.0241C84.3381 15.0241 84.5657 15.0544 84.9299 15.1149C85.4459 15.2662 85.7038 15.4478 85.7038 15.6596C85.7038 15.7806 85.7494 15.9017 85.8404 16.0227C85.9314 16.1135 86.0377 16.1589 86.1591 16.1589C86.3715 16.1891 86.3412 16.3253 86.068 16.5674C85.8252 16.8095 85.4003 17.1423 84.7933 17.566C84.2167 17.9291 83.8525 18.1712 83.7008 18.2922C83.5794 18.383 83.5642 18.5948 83.6552 18.9277C83.898 19.5026 83.9132 20.1683 83.7008 20.9248C83.4883 21.6813 83.1089 22.453 82.5626 23.2397C82.0164 24.0265 81.3487 24.7678 80.5596 25.4638C79.8008 26.1295 78.9814 26.7045 78.1013 27.1887C77.2515 27.6426 76.4169 27.9149 75.5974 28.0057ZM74.8235 26.0085C74.9449 26.0085 75.1574 25.948 75.4609 25.827C75.7643 25.6757 76.0071 25.5546 76.1892 25.4638C76.3106 25.3428 76.4624 25.2066 76.6445 25.0553C76.8569 24.8738 77.0239 24.7678 77.1453 24.7376C77.2667 24.7376 77.4184 24.6922 77.6005 24.6014C77.7826 24.4804 78.0406 24.2534 78.3744 23.9206C78.7083 23.5574 79.1483 23.0279 79.6946 22.3319C80.3016 21.6662 80.772 21.061 81.1059 20.5163C81.4397 19.9414 81.5308 19.4118 81.379 18.9277C81.3487 18.8066 81.2576 18.731 81.1059 18.7007C80.9845 18.6704 80.8175 18.5948 80.6051 18.4738C80.3016 18.4738 80.0133 18.3981 79.7401 18.2468C79.4973 18.0652 79.209 17.8383 78.8752 17.566L78.1468 16.6582L77.3729 17.4298C76.8873 17.9139 76.3713 18.6402 75.825 19.6085C75.3091 20.5466 74.869 21.5149 74.5048 22.5135C74.1406 23.4818 73.9282 24.2534 73.8675 24.8284C73.8372 25.2823 73.913 25.5849 74.0951 25.7362C74.2772 25.8875 74.52 25.9782 74.8235 26.0085Z" fill="#FCFCFC"/>
<path d="M89.6435 29.9121C89.0668 29.67 88.5205 29.3522 88.0046 28.9589C87.4886 28.5352 87.1548 28.1872 87.003 27.9149C87.003 27.6426 87.0486 27.461 87.1396 27.3702C87.2307 27.2492 87.4886 27.2038 87.9135 27.234C88.3688 27.234 89.0972 27.2946 90.0987 27.4156C90.4629 27.4156 90.9181 27.3853 91.4644 27.3248C92.0107 27.2643 92.5115 27.1735 92.9667 27.0525C93.4523 26.9314 93.7255 26.7801 93.7862 26.5986C93.9379 26.5986 93.9683 26.5532 93.8772 26.4624C93.7862 26.3414 93.6799 26.2203 93.5585 26.0993C93.4372 26.0993 93.3006 26.0539 93.1488 25.9631C92.9971 25.8421 92.8605 25.7816 92.7391 25.7816C92.7391 25.6303 92.5874 25.4638 92.2839 25.2823C92.0107 25.0704 91.7224 24.904 91.4189 24.783C90.7512 24.2383 90.1746 23.7541 89.689 23.3305C89.2034 22.8766 89.0213 22.574 89.1427 22.4227C89.1427 22.3017 89.1427 22.2411 89.1427 22.2411C89.1427 22.2109 89.1427 22.1957 89.1427 22.1957C88.9302 22.1957 88.6874 21.8931 88.4143 21.2879C88.1715 20.6827 88.0501 20.1381 88.0501 19.6539C88.0501 19.2908 88.1563 18.8369 88.3688 18.2922C88.5812 17.7173 88.8695 17.1272 89.2337 16.522C89.5979 15.9168 89.9773 15.4175 90.3718 15.0241C90.9181 14.5097 91.601 13.965 92.4204 13.3901C93.2399 12.7849 94.0441 12.2553 94.8332 11.8014C95.6527 11.3173 96.3355 10.9995 96.8818 10.8482C97.4281 10.6364 97.9289 10.5305 98.3841 10.5305C98.8697 10.5305 99.2946 10.6364 99.6588 10.8482C99.9623 10.9995 100.235 11.2265 100.478 11.5291C100.751 11.8014 100.979 12.0889 101.161 12.3915C101.374 12.6638 101.51 12.9059 101.571 13.1177C101.571 13.4809 101.54 13.8894 101.48 14.3433C101.419 14.7669 101.328 15.1452 101.207 15.478C101.116 15.8109 100.964 15.9773 100.751 15.9773C100.751 15.9773 100.706 15.9924 100.615 16.0227C100.554 16.0227 100.524 16.0983 100.524 16.2496C100.524 16.5522 100.296 16.9002 99.8409 17.2936C99.2643 17.687 98.7635 17.9291 98.3386 18.0199C97.9137 18.0804 97.6557 17.9139 97.5647 17.5206C97.4736 17.3995 97.4129 17.2936 97.3826 17.2028C97.3522 17.1121 97.2764 17.0667 97.155 17.0667C97.155 17.0667 97.1094 17.0213 97.0184 16.9305C96.9273 16.8397 96.8818 16.6884 96.8818 16.4766C96.8818 16.3556 96.9273 16.2496 97.0184 16.1589C97.1094 16.0378 97.155 15.9773 97.155 15.9773C97.3067 15.9773 97.504 15.8109 97.7468 15.478C97.9896 15.1149 98.202 14.7366 98.3841 14.3433C98.5966 13.9196 98.7028 13.6322 98.7028 13.4809C98.7028 13.2993 98.6725 13.1934 98.6118 13.1631C98.5814 13.1329 98.4448 13.1177 98.202 13.1177C97.7771 13.2993 97.2612 13.5414 96.6542 13.844C96.0472 14.1466 95.4706 14.4492 94.9243 14.7518C94.4083 15.0241 94.029 15.2813 93.7862 15.5234C93.6648 15.7352 93.5889 15.8714 93.5585 15.9319C93.5282 15.9622 93.4523 15.9773 93.3309 15.9773C93.3309 15.8563 93.2247 15.9168 93.0123 16.1589C92.8302 16.3707 92.5874 16.6733 92.2839 17.0667C92.0107 17.46 91.7376 17.8534 91.4644 18.2468C91.2216 18.6099 91.0395 18.8823 90.9181 19.0638C90.8574 19.1243 90.7816 19.3059 90.6905 19.6085C90.6298 19.8809 90.5995 20.1381 90.5995 20.3801C90.4781 20.7433 90.4932 21.0005 90.645 21.1518C90.7967 21.2728 91.1306 21.5452 91.6465 21.9688C92.7088 22.7556 93.5434 23.4061 94.1504 23.9206C94.7574 24.435 95.2126 24.8586 95.5161 25.1915C95.8196 25.5244 96.0017 25.8269 96.0624 26.0993C96.6087 27.0071 96.7756 27.7031 96.5632 28.1872C96.3507 28.6714 95.8348 29.095 95.0153 29.4582C94.7118 29.6095 94.2111 29.7305 93.513 29.8213C92.815 29.9121 92.1018 29.9574 91.3734 29.9574C90.645 29.9877 90.0684 29.9726 89.6435 29.9121Z" fill="#FCFCFC"/>
<path d="M116.722 28.3234C115.964 28.6865 115.281 28.7924 114.674 28.6411C114.067 28.4596 113.581 28.0511 113.217 27.4156C112.883 26.7801 112.716 25.9783 112.716 25.0099C112.716 24.6771 112.762 24.1778 112.853 23.5121C112.974 22.8463 113.111 22.1504 113.262 21.4241C113.414 20.6676 113.581 20.017 113.763 19.4723C113.854 19.2 113.915 18.9882 113.945 18.8369C114.006 18.6856 113.976 18.6099 113.854 18.6099C113.733 18.6099 113.581 18.6856 113.399 18.8369C113.247 18.9882 113.126 19.1092 113.035 19.2C112.367 19.7447 111.669 20.4104 110.941 21.1972C110.243 21.9839 109.59 22.7858 108.983 23.6028C108.376 24.3896 107.875 25.1158 107.481 25.7816C107.117 26.4473 106.935 26.9314 106.935 27.234C106.935 27.6879 106.707 28.0057 106.252 28.1872C105.796 28.3688 105.402 28.3537 105.068 28.1418C104.491 27.809 104.127 27.4156 103.975 26.9617C103.854 26.4775 103.839 25.6757 103.93 24.556C104.021 23.1338 104.142 21.8629 104.294 20.7433C104.446 19.6236 104.689 18.4132 105.023 17.1121C105.387 15.7806 105.857 14.1617 106.434 12.2553C106.828 11.1962 107.192 10.1976 107.526 9.25957C107.86 8.29125 108.149 7.47423 108.391 6.80851C108.664 6.14279 108.831 5.73428 108.892 5.58298C109.044 5.43168 109.241 5.06856 109.484 4.49362C109.727 3.88842 109.939 3.28322 110.121 2.67801C110.334 2.07281 110.44 1.70969 110.44 1.58865C110.44 1.34657 110.485 1.13475 110.576 0.953193C110.668 0.741371 110.774 0.574941 110.895 0.4539C111.017 0.33286 111.123 0.22695 111.214 0.136171C111.305 0.0453904 111.35 0 111.35 0C111.502 0 111.684 0.0453904 111.897 0.136171C112.139 0.22695 112.367 0.36312 112.58 0.544682C112.792 0.695982 112.929 0.892672 112.989 1.13475C113.202 1.55839 113.308 1.99716 113.308 2.45106C113.308 2.87471 113.171 3.40426 112.898 4.03972C112.655 4.67518 112.231 5.55272 111.624 6.67234C111.138 7.6104 110.698 8.57872 110.303 9.5773C109.909 10.5759 109.529 11.6199 109.165 12.7092C109.013 13.1631 108.801 13.7986 108.528 14.6156C108.285 15.4326 108.027 16.2799 107.754 17.1574C107.511 18.035 107.299 18.8217 107.117 19.5177C106.965 20.1835 106.889 20.6071 106.889 20.7887C106.889 21.0005 107.01 21.1064 107.253 21.1064C107.496 21.0761 107.739 20.8946 107.982 20.5617C108.103 20.3196 108.361 20.017 108.755 19.6539C109.15 19.2908 109.469 19.0033 109.712 18.7915C109.954 18.5797 110.288 18.2771 110.713 17.8837C111.138 17.4903 111.593 17.0969 112.079 16.7035C112.564 16.2799 113.02 15.9319 113.444 15.6596C113.869 15.357 114.203 15.2057 114.446 15.2057C114.841 15.2057 115.205 15.357 115.539 15.6596C115.872 15.9319 116.1 16.2345 116.221 16.5674C116.313 16.6582 116.404 16.7792 116.495 16.9305C116.586 17.0515 116.646 17.1423 116.677 17.2028C116.828 17.3239 116.828 17.8534 116.677 18.7915C116.555 19.6993 116.252 20.8794 115.766 22.3319C115.493 23.4515 115.265 24.4047 115.083 25.1915C114.932 25.948 114.977 26.3262 115.22 26.3262C115.22 26.3262 115.372 26.2355 115.675 26.0539C116.009 25.8723 116.358 25.6756 116.722 25.4638C117.602 24.8889 118.361 24.556 118.998 24.4652C119.666 24.3442 120 24.4501 120 24.783C120 24.904 119.954 25.0251 119.863 25.1461C119.772 25.2369 119.727 25.3428 119.727 25.4638C119.727 25.4638 119.727 25.479 119.727 25.5092C119.727 25.5092 119.727 25.5697 119.727 25.6908C119.727 25.7513 119.53 25.9934 119.135 26.417C118.74 26.8104 118.3 27.2189 117.815 27.6426C117.36 28.0359 116.995 28.2629 116.722 28.3234Z" fill="#FCFCFC"/>
<path fill-rule="evenodd" clip-rule="evenodd" d="M85.205 4.77627C85.1004 4.74702 84.9943 4.72136 84.887 4.69941C84.8702 4.69599 84.8534 4.69265 84.8365 4.6894L84.8314 4.68842L84.8245 4.68711C84.8139 4.68509 84.8022 4.68294 84.7789 4.6786L84.7707 4.6771C84.5996 4.6435 84.5996 4.38925 84.7707 4.35565L84.7789 4.35415C84.8022 4.34981 84.8139 4.34765 84.8245 4.34564L84.8314 4.34433L84.8365 4.34335C84.8534 4.3401 84.8702 4.33676 84.8869 4.33334C84.9943 4.31139 85.1004 4.28573 85.205 4.25648C85.2944 4.2315 85.3827 4.20389 85.4698 4.17377C86.8799 3.68612 87.9894 2.53498 88.4594 1.07209C88.4885 0.981674 88.5151 0.890076 88.5392 0.797366C88.5674 0.688855 88.5921 0.578807 88.6133 0.467384C88.6166 0.449981 88.6198 0.432545 88.6229 0.415076L88.6239 0.409776L88.6251 0.402612C88.627 0.391718 88.6291 0.379761 88.6332 0.356093L88.6333 0.355275L88.6348 0.346819C88.6672 0.169266 88.9122 0.169266 88.9446 0.346819L88.9461 0.355275C88.9502 0.379483 88.9523 0.391587 88.9542 0.402612L88.9555 0.409776L88.9565 0.415076C88.9596 0.432545 88.9628 0.449981 88.9661 0.467384C88.9873 0.578823 89.012 0.688855 89.0402 0.797366C89.0643 0.890076 89.0909 0.981674 89.1199 1.07209C89.5899 2.53498 90.6995 3.68612 92.1096 4.17377C92.1967 4.20389 92.285 4.2315 92.3744 4.25648C92.479 4.28573 92.585 4.31139 92.6924 4.33334C92.7092 4.33676 92.726 4.3401 92.7428 4.34335L92.748 4.34433L92.7549 4.34564C92.7655 4.34765 92.7772 4.34981 92.8005 4.35415L92.8086 4.35565C92.9798 4.38925 92.9798 4.6435 92.8086 4.6771L92.7758 4.68318L92.7549 4.68711L92.748 4.68842L92.7428 4.6894C92.726 4.69265 92.7092 4.69599 92.6924 4.69941C92.585 4.72136 92.479 4.74702 92.3744 4.77627C92.285 4.80124 92.1967 4.82885 92.1096 4.85898C90.6995 5.34663 89.5899 6.49777 89.1199 7.96065C89.0909 8.05108 89.0643 8.14267 89.0402 8.23538C89.012 8.34389 88.9873 8.45394 88.9661 8.56537C88.9628 8.58277 88.9596 8.6002 88.9565 8.61767L88.9555 8.62297L88.9542 8.63014L88.9514 8.64627L88.9462 8.67654L88.9446 8.68593C88.9122 8.86348 88.6672 8.86348 88.6348 8.68593L88.6333 8.67747C88.6292 8.65332 88.6271 8.64115 88.6251 8.63014L88.6239 8.62297L88.6229 8.61767C88.6198 8.6002 88.6166 8.58277 88.6133 8.56537C88.5921 8.45393 88.5674 8.34389 88.5392 8.23538C88.5151 8.14267 88.4885 8.05108 88.4594 7.96065C87.9894 6.49777 86.8799 5.34663 85.4698 4.85898C85.3827 4.82885 85.2944 4.80124 85.205 4.77627ZM82.845 8.18195C83.0248 8.21759 83.1952 8.27997 83.3522 8.36498C83.422 8.40279 83.4892 8.44508 83.5533 8.4915C83.7321 8.6208 83.8875 8.78208 84.0122 8.96753C84.0569 9.0341 84.0977 9.10378 84.1341 9.17621C84.2161 9.33906 84.2762 9.51584 84.3105 9.70246C84.312 9.71016 84.3134 9.71788 84.3147 9.72562C84.3267 9.79574 84.4237 9.79574 84.4357 9.72562C84.4371 9.71788 84.4384 9.71016 84.4399 9.70246C84.4742 9.51584 84.5343 9.33906 84.6163 9.17621C84.6527 9.10378 84.6935 9.0341 84.7382 8.96753C84.8629 8.78208 85.0183 8.6208 85.1971 8.4915C85.2612 8.44508 85.3284 8.40279 85.3982 8.36498C85.5552 8.27997 85.7256 8.21759 85.9055 8.18195C85.9129 8.18047 85.9203 8.17905 85.9278 8.17766C85.9954 8.16516 85.9954 8.06457 85.9278 8.05207C85.9203 8.05068 85.9129 8.04926 85.9055 8.04779C85.7256 8.01215 85.5552 7.94976 85.3982 7.86476C85.3284 7.82694 85.2612 7.78466 85.1971 7.73824C85.0183 7.60893 84.8629 7.44766 84.7382 7.2622C84.6935 7.19563 84.6527 7.12595 84.6163 7.05352C84.5343 6.89068 84.4742 6.71389 84.4399 6.52728C84.4384 6.51957 84.4371 6.51185 84.4357 6.50412C84.4237 6.434 84.3267 6.434 84.3147 6.50412C84.3134 6.51185 84.312 6.51957 84.3105 6.52728C84.2762 6.71389 84.2161 6.89068 84.1341 7.05352C84.0977 7.12595 84.0569 7.19563 84.0122 7.2622C83.8875 7.44766 83.7321 7.60893 83.5533 7.73824C83.4892 7.78466 83.422 7.82694 83.3522 7.86476C83.1952 7.94976 83.0248 8.01215 82.845 8.04779C82.8375 8.04926 82.8301 8.05068 82.8226 8.05207C82.7551 8.06457 82.7551 8.16516 82.8226 8.17766C82.8301 8.17905 82.8375 8.18047 82.845 8.18195Z" fill="url(#paint0_linear_506_297)"/>
<defs>
<linearGradient id="paint0_linear_506_297" x1="92.5938" y1="0.31118" x2="83.622" y2="10.3248" gradientUnits="userSpaceOnUse">
<stop stop-color="#FF5100"/>
<stop offset="1" stop-color="#FF8952"/>
</linearGradient>
</defs>
</svg>
