<svg width="114" height="32" viewBox="0 0 114 32" fill="none" xmlns="http://www.w3.org/2000/svg">
<g clip-path="url(#clip0_73_49)">
<path d="M47.452 28.693C52.5254 24.9182 71.1105 17.7334 104.864 19.1926" stroke="url(#paint0_linear_73_49)" stroke-width="1.11757" stroke-linecap="round"/>
<path d="M93.4123 22.7055C93.0048 23.2291 92.4293 23.5265 91.686 23.5977C90.9664 23.6874 90.3197 23.4994 89.7458 23.0336C89.4418 22.6632 89.1972 22.2531 89.0122 21.8033C88.806 21.3562 88.6911 20.9514 88.6674 20.589C88.6252 20.2504 88.7099 20.0679 88.9215 20.0415C89.0273 20.0283 89.1265 20.0482 89.2191 20.1011C89.3116 20.1541 89.3963 20.2295 89.473 20.3274C89.5523 20.4465 89.6025 20.5906 89.6236 20.7599C89.6632 21.0774 89.7728 21.3539 89.9526 21.5893C90.1324 21.8248 90.3599 21.9254 90.635 21.8911C90.8784 21.9468 91.1773 21.845 91.5319 21.5859C91.9076 21.3241 92.1881 20.9883 92.3734 20.5783C92.5507 20.2768 92.7506 19.8113 92.973 19.1818C93.2166 18.5497 93.4456 17.8871 93.6601 17.1941C93.8984 16.5197 94.0666 15.9721 94.1646 15.5516C94.3104 14.6522 94.4218 13.7357 94.4988 12.8019C94.597 11.8655 94.6873 10.8656 94.7696 9.80226C94.783 9.2203 94.8176 8.72168 94.8733 8.30639C94.9475 7.86729 94.9793 7.60542 94.9688 7.52077C94.9582 7.43612 94.9477 7.26549 94.9372 7.0089C94.9241 6.73114 94.9572 6.47985 95.0366 6.25503C94.9971 5.93758 94.9839 5.65982 94.9972 5.42175C95.0291 5.15988 95.0397 4.98662 95.0292 4.90196C95.0847 4.83056 95.1668 4.79884 95.2752 4.80682C95.4048 4.81215 95.5371 4.83865 95.672 4.8863C95.828 4.93133 95.9656 5.00015 96.0846 5.09277C96.275 5.24097 96.4019 5.39709 96.4653 5.56111C96.5499 5.7225 96.5935 5.98572 96.596 6.35077C96.6197 6.71318 96.6274 7.2925 96.6192 8.08873C96.6351 8.21571 96.6363 8.4842 96.6229 8.89422C96.6069 9.28307 96.5764 9.72746 96.5312 10.2274C96.4861 10.7273 96.4397 11.2167 96.3919 11.6955C96.3415 12.1531 96.303 12.534 96.2764 12.8382C96.2314 13.1662 96.1796 13.5273 96.1213 13.9214C96.063 14.3155 96.0325 14.588 96.0298 14.7388C96.0245 14.8684 95.9821 15.1316 95.9026 15.5283C95.8204 15.9039 95.7277 16.2809 95.6244 16.6591C95.5423 17.0347 95.4999 17.2979 95.4972 17.4487C95.4866 17.536 95.4482 17.7449 95.3819 18.0756C95.3368 18.4036 95.2071 18.9141 94.9926 19.6071C94.9184 19.8742 94.7794 20.2247 94.5756 20.6584C94.3929 21.0895 94.1957 21.4902 93.984 21.8605C93.7749 22.2519 93.5843 22.5336 93.4123 22.7055Z" fill="white"/>
<path d="M83.6837 16.6004C83.435 16.6744 83.1546 16.6664 82.8425 16.5763C82.5304 16.4863 82.2434 16.3394 81.9816 16.1356C81.741 15.9292 81.5731 15.703 81.4779 15.4569C81.3379 15.0231 81.3222 14.4662 81.4309 13.7864C81.5581 13.0828 81.766 12.3369 82.0546 11.5487C82.3617 10.7367 82.7151 9.9512 83.1148 9.19213C83.5356 8.43043 83.9789 7.76265 84.4447 7.18877C84.929 6.5911 85.392 6.16801 85.8339 5.9195C86.0482 5.74234 86.2162 5.62468 86.3379 5.56652C86.4782 5.48456 86.625 5.45552 86.7784 5.47937C86.953 5.50059 87.2095 5.57607 87.5481 5.7058C87.8549 5.75352 88.089 5.82105 88.2503 5.9084C88.4117 5.99574 88.6285 6.18363 88.9009 6.47205C89.1098 6.76839 89.2763 7.07001 89.4006 7.3769C89.5248 7.6838 89.6437 8.03434 89.7573 8.42852C89.9926 8.93649 90.0996 9.27777 90.0784 9.45235C90.0545 9.60577 90.0056 9.73008 89.9315 9.82528C89.7885 10.058 89.7594 10.1691 89.844 10.1586C89.844 10.1586 89.8387 10.2022 89.8281 10.2895C89.836 10.353 89.8069 10.4641 89.7407 10.6228C89.6506 11.1068 89.5949 11.6081 89.5736 12.1266C89.5708 12.6212 89.6315 13.022 89.7557 13.3289C89.9831 13.7734 90.3242 14.0102 90.7792 14.0395C91.2342 14.0687 91.6654 13.8215 92.073 13.2979C92.2847 13.0996 92.4884 12.9237 92.6842 12.7704C92.8774 12.5959 92.9845 12.5933 93.0056 12.7626C93.0056 12.7626 93.0413 12.7903 93.1127 12.8459C93.1815 12.8803 93.2582 12.8923 93.3429 12.8817C93.4487 12.8685 93.5174 12.9029 93.5491 12.9849C93.602 13.0643 93.6165 13.1807 93.5927 13.3341C93.5873 13.4637 93.5423 13.6198 93.4576 13.8023C93.1797 14.1593 93.0474 14.3907 93.0606 14.4966C93.0606 14.4966 93.0235 14.5442 92.9494 14.6394C92.8939 14.7108 92.7907 14.8311 92.6398 15.0003C92.2879 15.2806 91.8157 15.4577 91.2231 15.5316C90.6517 15.6028 90.1928 15.5418 89.8463 15.3486C89.4998 15.1554 89.164 14.8749 88.8387 14.5071C88.5346 14.1366 88.3218 13.8085 88.2002 13.5228L88.0019 13.2252L87.1565 13.9431C86.9527 14.2049 86.7265 14.4588 86.4778 14.7047C86.2502 14.948 86.0993 15.1172 86.0252 15.2124C85.9723 15.305 85.9075 15.3883 85.8307 15.4623C85.7752 15.5337 85.705 15.5747 85.6204 15.5853C85.5357 15.5958 85.4617 15.6051 85.3982 15.613C85.3347 15.6209 85.3029 15.6248 85.3029 15.6248C85.3135 15.7095 85.2209 15.8285 85.0251 15.9819C84.8504 16.1326 84.6308 16.2674 84.3663 16.3864C84.1229 16.5027 83.8953 16.574 83.6837 16.6004ZM83.1526 14.9258C83.2795 14.91 83.4899 14.787 83.7836 14.557C84.0958 14.3031 84.4358 14.0136 84.8036 13.6883C85.1926 13.3605 85.5286 13.0392 85.8118 12.7245C86.1161 12.4071 86.3225 12.1665 86.431 12.0025C86.5051 11.9073 86.6255 11.7526 86.7923 11.5384C86.9564 11.303 87.1032 11.102 87.2329 10.9354C87.6511 10.3245 87.9145 9.67913 88.0232 8.99933C88.1292 8.29836 88.0421 7.77192 87.7618 7.42001C87.6481 7.19777 87.5265 7.08398 87.3969 7.07865C87.2672 7.07332 87.0119 7.18036 86.6309 7.3998C86.3955 7.5796 86.1136 7.90487 85.7855 8.37563C85.4758 8.82257 85.1437 9.34755 84.789 9.95056C84.4528 10.5298 84.1405 11.1275 83.852 11.7437C83.5634 12.36 83.3331 12.926 83.161 13.4418C82.9889 13.9576 82.92 14.353 82.9543 14.6281C82.9648 14.7128 82.9952 14.7842 83.0455 14.8424C83.1169 14.898 83.1526 14.9258 83.1526 14.9258Z" fill="white"/>
<path d="M72.8556 18.2729C72.7762 18.4977 72.6254 18.581 72.4032 18.5227C72.2021 18.4618 72.0329 18.3969 71.8953 18.3281C71.7472 18.3466 71.6149 18.3201 71.4986 18.2486C71.3822 18.1772 71.2923 18.0594 71.2289 17.8954C71.1707 17.7737 71.1417 17.6269 71.1417 17.4549C71.1391 17.2618 71.1551 17.0449 71.1895 16.8042C71.2425 16.5397 71.2929 16.254 71.3406 15.9472C71.4229 15.2277 71.4759 14.7053 71.4998 14.3799C71.5238 14.0546 71.553 13.7715 71.5874 13.5308C71.6219 13.2901 71.6643 12.9409 71.7147 12.4833C71.8313 12.0389 71.9174 11.6091 71.9731 11.1938C72.0288 10.7785 72.1374 10.3567 72.2989 9.92817C72.3784 9.35946 72.4937 8.81854 72.6446 8.30541C72.8141 7.76847 72.9835 7.31751 73.153 6.95252C73.1874 6.88375 73.2509 6.78986 73.3435 6.67086C73.4573 6.54921 73.5565 6.48311 73.6412 6.47256C73.7894 6.28215 73.9296 6.20019 74.0618 6.22669C74.2126 6.22938 74.4044 6.30219 74.6371 6.44511C74.9254 6.68858 75.0602 6.99415 75.0415 7.36184C75.0441 7.72688 74.8561 8.28762 74.4775 9.04405C74.3054 9.73176 74.1438 10.3322 73.9929 10.8453C73.8393 11.3373 73.7465 11.8002 73.7147 12.234C73.9052 11.8664 74.1209 11.5278 74.3618 11.2184C74.6211 10.8852 74.8341 10.6115 75.0009 10.3973C75.4084 9.87365 75.7471 9.48755 76.017 9.23898C76.3081 8.98778 76.6481 8.69823 77.0371 8.37035C77.2699 8.16938 77.4948 7.9909 77.7118 7.8349C77.9261 7.65774 78.1669 7.52026 78.4341 7.42247C78.7225 7.32205 79.0399 7.28248 79.3864 7.30375C79.5954 7.25621 79.7726 7.29859 79.9181 7.4309C80.0847 7.56058 80.2262 7.74711 80.3425 7.99052C80.4588 8.23392 80.5486 8.52361 80.612 8.85958C80.1121 8.81445 79.6809 8.88969 79.3184 9.08532C78.9533 9.25979 78.645 9.45941 78.3937 9.68417C78.1635 9.9063 77.9809 10.0795 77.8459 10.2038C77.5549 10.455 77.1884 10.7908 76.7465 11.2113C76.3019 11.6106 75.8666 12.0839 75.4406 12.6314C75.1124 13.1021 74.8292 13.5028 74.591 13.8334C74.374 14.1613 74.1954 14.4522 74.0551 14.7061C73.936 14.9574 73.8499 15.2153 73.7969 15.4798C73.646 15.9929 73.4897 16.5497 73.3281 17.1501C73.1666 17.7505 73.0091 18.1248 72.8556 18.2729Z" fill="white"/>
<path d="M62.1537 19.4134C61.9897 19.4768 61.7701 19.5257 61.495 19.56C61.2173 19.5731 60.9699 19.5717 60.753 19.5558C60.5546 19.516 60.4515 19.4644 60.4436 19.4009C60.4304 19.2951 60.3709 19.2488 60.2651 19.262C60.2651 19.262 60.2069 19.2262 60.0905 19.1548C59.9953 19.0807 59.8472 19.0132 59.6462 18.9523C59.4188 18.6797 59.2839 18.3742 59.2417 18.0355C59.1969 17.6758 59.2222 17.1031 59.3177 16.3175C59.3152 15.7805 59.4398 15.1417 59.6913 14.4011C59.9614 13.6367 60.3042 12.8525 60.7198 12.0485C61.1354 11.2444 61.5813 10.5118 62.0577 9.85067C62.5552 9.18687 63.0196 8.68839 63.4509 8.35522C63.7103 8.022 64.0503 7.81843 64.4709 7.7445C64.8915 7.67057 65.3055 7.71568 65.7128 7.87982C65.9376 7.95925 66.1704 8.10217 66.411 8.30859C66.6517 8.515 66.8844 8.74389 67.1091 8.99527C67.3339 9.24664 67.5269 9.50197 67.6882 9.76127C67.7807 9.98614 67.8388 10.1938 67.8626 10.3843C67.9049 10.551 67.9312 10.7626 67.9417 11.0192C67.9734 11.2731 67.9891 11.658 67.989 12.1739C67.9306 12.568 67.8934 13.0454 67.8774 13.6062C67.8825 14.1644 67.9101 14.6445 67.9602 15.0466C67.968 15.454 68.046 15.7344 68.1941 15.8879C68.3633 16.0387 68.5763 16.0229 68.8329 15.8405C69.071 15.6819 69.3078 15.5986 69.5433 15.5907C69.7761 15.5617 69.9639 15.6028 70.1067 15.7139C70.2706 15.8224 70.3684 16.0037 70.4001 16.2576C70.4318 16.5116 70.3378 16.792 70.1181 17.0987C69.917 17.3817 69.6484 17.6409 69.3124 17.8762C68.9949 18.0877 68.6774 18.2133 68.3599 18.2528C68.1271 18.2819 67.8878 18.172 67.6419 17.9233C67.3933 17.6534 67.1593 17.3279 66.9399 16.9469C66.739 16.5421 66.5513 16.1572 66.3768 15.7921L66.0953 15.0857L64.8925 16.5574C64.6544 16.888 64.4135 17.1974 64.1701 17.4856C63.9451 17.7501 63.8075 17.9392 63.7572 18.0529C63.6752 18.2566 63.4978 18.4721 63.2253 18.6995C62.9739 18.9243 62.6167 19.1622 62.1537 19.4134ZM62.0155 17.5286C62.3489 17.2721 62.7233 16.9138 63.1388 16.4536C63.5516 15.9723 63.9499 15.4606 64.3336 14.9184C64.7147 14.3551 65.027 13.8434 65.2705 13.3832C65.5696 12.8516 65.788 12.3623 65.9257 11.9153C66.0634 11.4683 66.1509 11.049 66.188 10.6575C66.0744 10.4353 65.9065 10.2091 65.6843 9.97884C65.4596 9.72746 65.2718 9.60043 65.121 9.59773C64.6554 9.65577 64.195 10.0141 63.7398 10.6726C63.3031 11.3073 62.8836 11.9936 62.4813 12.7315C62.4098 12.8479 62.3146 13.0317 62.1954 13.283C62.0763 13.5342 61.9559 13.7749 61.8341 14.005C61.7309 14.2113 61.6621 14.3488 61.6276 14.4176C61.5747 14.5102 61.4781 14.7694 61.3377 15.1952C61.2159 15.5973 61.0954 16.0099 60.9762 16.4331C60.8544 16.8351 60.8014 17.0996 60.8173 17.2266C60.8331 17.3536 60.8608 17.4898 60.9005 17.6353C60.9613 17.7782 61.0789 17.8602 61.2535 17.8815C61.4281 17.9027 61.6821 17.7851 62.0155 17.5286Z" fill="white"/>
<path d="M41.8277 21.6894C41.7537 21.6126 41.677 21.5147 41.5977 21.3957C41.5395 21.274 41.5051 21.1708 41.4946 21.0861C41.4893 21.0438 41.4721 20.9922 41.4431 20.9314C41.4351 20.8679 41.3889 20.8414 41.3042 20.852C41.2328 20.7964 41.2448 20.5477 41.3402 20.106C41.4541 19.6405 41.6024 19.1062 41.7851 18.5031C41.989 17.8974 42.1955 17.3129 42.4047 16.7495C42.6324 16.1623 42.8217 15.6981 42.9725 15.3569C43.0704 15.2803 43.1234 15.1877 43.1314 15.0792C43.1579 14.947 43.1499 14.8835 43.1076 14.8888C43.1076 14.8888 43.1486 14.787 43.2307 14.5833C43.3313 14.3558 43.4094 14.2064 43.465 14.135C43.5973 13.8176 43.6874 13.5055 43.7351 13.1987C43.7802 12.8707 43.7684 12.6035 43.6997 12.3971C43.6018 12.3019 43.5026 12.282 43.4021 12.3375C43.3015 12.393 43.2513 12.4208 43.2513 12.4208C43.1693 12.4525 43.0476 12.5107 42.8862 12.5953C42.7433 12.656 42.6137 12.7367 42.4972 12.8372C42.0527 13.2365 41.7445 13.4361 41.5725 13.436C41.3979 13.4148 41.1732 13.1634 40.8982 12.6819C40.7845 12.4596 40.7317 12.2943 40.7397 12.1858C40.7476 12.0774 40.8178 11.9504 40.9501 11.805C41.1009 11.6357 41.2478 11.5207 41.3906 11.4599C41.5309 11.378 41.6393 11.3 41.7161 11.2259C41.9304 11.0488 42.1077 10.9192 42.2479 10.8373C42.4093 10.7527 42.531 10.6945 42.613 10.6628C43.1422 10.4249 43.6038 10.3351 43.9979 10.3934C44.392 10.4518 44.712 10.6913 44.9579 11.1119C45.299 11.4348 45.4986 11.829 45.5567 12.2946C45.6121 12.739 45.5286 13.276 45.3062 13.9055L45.0481 14.4212C44.9686 14.646 44.9607 14.7545 45.0242 14.7466C45.1088 14.736 45.1948 14.6501 45.2822 14.4887C45.3351 14.3962 45.4462 14.2534 45.6156 14.0603C45.785 13.8673 45.9014 13.7668 45.9649 13.7589C45.9649 13.7589 45.9847 13.7456 46.0244 13.7192C46.0853 13.6901 46.1065 13.6015 46.088 13.4534C46.1436 13.382 46.1991 13.3106 46.2547 13.2392C46.3315 13.1651 46.3698 13.1281 46.3698 13.1281C46.4545 13.1175 46.6013 13.0025 46.8104 12.783C47.0379 12.5397 47.3039 12.2594 47.6082 11.9421C47.8199 11.7438 48.021 11.6327 48.2114 11.609C48.6797 11.4002 49.091 11.5101 49.4453 11.9387C49.8208 12.3648 50.0547 12.9481 50.1471 13.6888L49.6942 15.4861L50.6628 13.9469C50.7687 13.7618 50.8772 13.5978 50.9884 13.455C51.1207 13.3096 51.2345 13.1879 51.3297 13.0901C51.3536 12.9366 51.4065 12.8441 51.4885 12.8124C51.5705 12.7806 51.6116 12.7648 51.6116 12.7648C51.6116 12.7648 51.6327 12.7621 51.675 12.7569C51.7147 12.7304 51.7306 12.6855 51.7227 12.622C51.818 12.5241 51.9251 12.4356 52.0442 12.3562C52.1606 12.2558 52.2347 12.1605 52.2665 12.0706C52.6078 11.8776 52.9332 11.8156 53.2427 11.8844C53.5495 11.9322 53.8364 12.165 54.1035 12.5831C54.2833 12.8186 54.3956 13.0302 54.4405 13.2181C54.4854 13.4059 54.5316 13.6903 54.5791 14.0712C54.5764 14.3939 54.5657 14.6532 54.5471 14.8489C54.5471 15.0209 54.5483 15.2034 54.5509 15.3965C54.5535 15.5896 54.5547 15.8581 54.5546 16.202C54.4911 16.3818 54.4606 16.5683 54.4632 16.7614C54.4869 16.9519 54.5093 17.1318 54.5304 17.3011C54.5647 17.5762 54.5991 17.7653 54.6334 17.8685C54.6651 17.9505 54.7551 17.9823 54.9032 17.9638C55.1916 17.8634 55.5752 17.6651 56.0541 17.369C56.5515 17.0491 56.9127 16.7569 57.1376 16.4925C57.4181 16.1566 57.6748 15.9742 57.9076 15.9452C58.1589 15.8923 58.3321 15.989 58.4273 16.235C58.4802 16.3144 58.4298 16.5141 58.2763 16.8341C58.1439 17.1515 57.9785 17.4623 57.78 17.7664C57.6027 18.0679 57.4611 18.2252 57.3553 18.2384C57.2918 18.2464 57.2256 18.3191 57.1568 18.4566C57.0854 18.573 57.0007 18.6695 56.9028 18.7462C56.7731 18.9128 56.6421 19.0688 56.5098 19.2143C56.3987 19.3571 56.2584 19.439 56.0891 19.4601C56.0045 19.4707 55.9026 19.5156 55.7835 19.5949C55.683 19.6505 55.5587 19.6875 55.4105 19.7059C55.2068 19.7958 54.8748 19.8049 54.4146 19.7334C53.9755 19.6592 53.6634 19.3972 53.4784 18.9474C53.3647 18.7252 53.2445 18.3641 53.1177 17.8641C52.9882 17.3429 52.9329 16.8125 52.9516 16.2729C52.9887 15.8814 52.9981 15.5256 52.9797 15.2055C52.9613 14.8854 52.9759 14.6579 53.0236 14.523C53.0156 14.4595 52.9972 14.3114 52.9681 14.0786C52.9365 13.8247 52.8889 13.7016 52.8254 13.7096C52.7408 13.7201 52.5595 13.9039 52.2816 14.2609C52.0223 14.5941 51.71 15.0199 51.3448 15.5383C51.0007 16.054 50.6593 16.5909 50.3205 17.1489C49.9818 17.7069 49.7105 18.2028 49.5066 18.6366C49.3452 18.8931 49.2115 19.2 49.1056 19.557C48.9996 19.9141 48.9176 20.1178 48.8593 20.168C48.7323 20.3558 48.5551 20.3994 48.3276 20.2988C48.1213 20.1955 47.9164 20.0169 47.7128 19.7629C47.6334 19.6438 47.5779 19.5433 47.5462 19.4613C47.5118 19.3581 47.4947 19.2205 47.4948 19.0486C47.5133 18.8529 47.5531 18.5685 47.6141 18.1955C47.6962 17.8199 47.8022 17.2909 47.932 16.6085C48.0751 15.8599 48.1957 15.1894 48.2938 14.5969C48.4104 13.9806 48.4687 13.6724 48.4687 13.6724C48.4581 13.5877 48.3099 13.6922 48.0242 13.9857C47.7357 14.2581 47.4023 14.6005 47.0239 15.0131C46.8625 15.2696 46.5885 15.6584 46.2022 16.1794C45.8158 16.7004 45.395 17.2901 44.9398 17.9486C44.4846 18.6072 44.0545 19.2948 43.6495 20.0115C43.144 20.9557 42.7761 21.5389 42.5459 21.761C42.3368 21.9805 42.0974 21.9566 41.8277 21.6894Z" fill="white"/>
<path d="M37.9679 23.9761C37.7007 24.0739 37.4626 24.0606 37.2536 23.9362C37.0685 23.8304 36.9178 23.6557 36.8015 23.4123C36.5715 22.9467 36.3786 22.4334 36.2227 21.8726C36.0853 21.2879 36.0101 20.7707 35.997 20.321L35.9774 19.6465L34.862 20.7849C34.2216 21.5095 33.58 22.0516 32.9371 22.4111C32.3153 22.768 31.7505 22.9781 31.2426 23.0415C31.0045 23.0282 30.7611 22.9725 30.5125 22.8746C30.2639 22.7766 30.0325 22.6443 29.8183 22.4775C29.6252 22.3082 29.4626 22.1243 29.3304 21.9258C29.1665 21.6454 29.074 21.2486 29.053 20.7354C29.0532 20.2196 29.1116 19.6535 29.2282 19.0372C29.3633 18.3971 29.5434 17.7728 29.7684 17.1645C30.012 16.5324 30.3071 15.969 30.6538 15.4745C31.2203 14.3292 31.8911 13.5901 32.6663 13.2571C33.4415 12.924 34.2496 12.9415 35.0907 13.3094C35.6699 13.4736 36.0217 13.5372 36.1461 13.5002C36.2916 13.4606 36.3882 13.2014 36.436 12.7226C36.4784 12.3735 36.5209 12.0243 36.5633 11.6751C36.6031 11.3048 36.6813 10.8115 36.7979 10.1952C37.1265 8.52083 37.4245 7.20491 37.692 6.2474C37.9806 5.28726 38.2415 4.44879 38.4745 3.732C38.6466 3.21623 38.8001 2.8962 38.9351 2.77192C39.0886 2.62383 39.2513 2.54982 39.4232 2.54988C39.656 2.52085 39.8782 2.57912 40.0898 2.72468C40.3014 2.87025 40.4785 3.08457 40.6213 3.36766C40.7297 3.54758 40.7825 3.71293 40.7798 3.8637C40.7956 3.99068 40.7546 4.17849 40.6566 4.42711C40.4448 4.96932 40.2012 5.68743 39.9258 6.58145C39.6689 7.45166 39.412 8.40784 39.1551 9.45C38.9193 10.4895 38.7034 11.5158 38.5073 12.5289C38.3112 13.542 38.1535 14.432 38.0342 15.1991C37.9653 15.6806 37.9228 16.2876 37.9067 17.0204C37.9117 17.7505 37.93 18.5004 37.9615 19.2702C37.9903 20.0188 38.0311 20.6907 38.0838 21.2859C38.1551 21.8573 38.2224 22.2251 38.2858 22.3891C38.4656 22.7965 38.558 23.1074 38.5633 23.3216C38.5896 23.5333 38.5539 23.6774 38.456 23.7541C38.3607 23.8519 38.198 23.926 37.9679 23.9761ZM32.1637 21.1213C32.4521 21.0209 32.7233 20.8689 32.9773 20.6653C33.2525 20.459 33.5343 20.2197 33.8227 19.9473C34.3969 19.3814 34.8918 18.8684 35.3072 18.4083C35.7227 17.9481 35.953 17.2962 35.9983 16.4523C35.9905 16.045 35.9086 15.7328 35.7526 15.5158C35.6151 15.2751 35.4062 15.0647 35.1259 14.8847C34.8508 14.7471 34.4937 14.7271 34.0546 14.8248C33.6339 14.8988 33.2172 15.1764 32.8044 15.6577C32.3545 16.1866 31.935 16.8729 31.5459 17.7166C31.1779 18.5577 30.9488 19.5642 30.8584 20.736C30.8425 20.9529 30.9271 21.1143 31.1122 21.2201C31.2973 21.326 31.6479 21.2931 32.1637 21.1213Z" fill="white"/>
<path d="M16.75 24.8479C16.6443 24.6891 16.5226 24.5754 16.3851 24.5065C16.2449 24.4165 16.1696 24.3292 16.159 24.2446C16.1485 24.1599 16.1273 24.0766 16.0956 23.9946C16.0824 23.8888 16.0282 23.7988 15.933 23.7247C15.8114 23.6109 15.7863 23.3239 15.8579 22.8636C15.9268 22.3822 16.0686 21.795 16.2831 21.102C16.4949 20.3879 16.7557 19.6354 17.0655 18.8445C17.2137 18.6541 17.3553 18.4108 17.4903 18.1146C17.6253 17.8184 17.7298 17.6226 17.8039 17.5274C17.7934 17.4428 17.8159 17.3648 17.8715 17.2933C17.9244 17.2008 17.9932 17.1492 18.0779 17.1387L18.0541 16.9482C18.0409 16.8424 18.1137 16.6506 18.2725 16.3729C18.4525 16.0926 18.6722 15.7858 18.9315 15.4526C19.1882 15.0982 19.4582 14.7637 19.7413 14.449C20.0218 14.1131 20.26 13.8685 20.4558 13.7151C20.8633 13.3635 21.2958 13.1268 21.7535 13.0053C22.2324 12.8811 22.6582 12.9355 23.0311 13.1684C23.1025 13.224 23.2215 13.3166 23.3882 13.4463C23.5548 13.576 23.7452 13.7242 23.9594 13.8909C24.1921 14.0338 24.4262 14.1873 24.6616 14.3514L25.9667 15.2525L25.5932 16.911C25.4236 17.7918 25.4419 18.5418 25.648 19.1608C25.8753 19.7773 26.1555 20.3011 26.4887 20.7324C26.6235 20.952 26.8628 21.1478 27.2067 21.3199C27.5717 21.4893 27.9049 21.5767 28.2065 21.5821C28.3784 21.5822 28.5451 21.6259 28.7064 21.7132C28.8677 21.8006 28.9629 21.9606 28.9919 22.1934C29.0183 22.4051 28.9971 22.5796 28.9283 22.7172C28.8594 22.8547 28.7219 22.9578 28.5155 23.0265C27.8277 23.1983 27.1505 23.1107 26.484 22.764C25.8387 22.4146 25.2014 21.7848 24.5721 20.8746C24.4716 20.7582 24.3262 20.5399 24.1359 20.2198C23.964 19.8758 23.8609 19.6523 23.8266 19.5491C23.7551 19.6655 23.6215 19.8863 23.4256 20.2116C23.2271 20.5157 23.0723 20.7392 22.9611 20.882C21.6485 22.5931 20.4749 23.7818 19.4404 24.448C18.4244 25.0905 17.5276 25.2238 16.75 24.8479ZM17.6712 22.9277C17.6897 23.0759 17.9119 23.0482 18.3379 22.8446C18.7823 22.6173 19.2427 22.259 19.7191 21.7698C20.3621 21.0663 20.9972 20.2994 21.6244 19.469C22.2728 18.636 22.7796 17.8743 23.1449 17.184L23.7008 15.9541C23.4285 15.4937 23.1548 15.1947 22.8797 15.0571C22.6232 14.8957 22.4103 14.8255 22.241 14.8466C21.9658 14.8809 21.5848 15.1863 21.0979 15.7628C20.6321 16.3367 20.1452 17.0851 19.637 18.0082C19.1288 18.9312 18.6629 19.9349 18.2393 21.0193C18.0804 21.469 17.9414 21.9054 17.8222 22.3286C17.7216 22.728 17.6712 22.9277 17.6712 22.9277Z" fill="white"/>
<path d="M4.67584 29.0612C4.42188 29.0929 4.1931 28.9817 3.9895 28.7277C3.84669 28.6166 3.73961 28.4472 3.66826 28.2197C3.62072 28.0107 3.64598 27.61 3.74405 27.0175C3.83948 26.4038 4.01306 25.4687 4.26478 24.2123C4.37615 23.3817 4.4729 22.7786 4.55503 22.403C4.63452 22.0063 4.66371 21.7232 4.64261 21.5539C4.61358 21.3211 4.611 21.128 4.63486 20.9746C4.67724 20.7974 4.6892 20.6347 4.67073 20.4866C4.79771 20.4707 4.91018 20.3385 5.00814 20.0899C5.1061 19.8413 5.17234 19.5106 5.20686 19.098C5.24666 18.7277 5.28512 18.4327 5.32222 18.2132C5.37785 17.9698 5.40039 17.8058 5.38984 17.7212C5.47455 17.5387 5.54739 17.2609 5.60835 16.888C5.69048 16.5124 5.82686 16.0548 6.0175 15.5152C6.10766 14.8592 6.21634 14.1794 6.34354 13.4758C6.46811 12.7511 6.59927 12.0792 6.73703 11.4602C6.89332 10.8175 7.02442 10.3176 7.13035 9.9605C7.28136 9.27543 7.40452 8.79799 7.49984 8.52821C7.59252 8.23726 7.5701 8.05737 7.43256 7.98855C7.27123 7.9012 7.21706 7.72527 7.27005 7.46076C7.32305 7.19625 7.52022 6.88153 7.86158 6.51659C8.06008 6.21245 8.23739 5.99692 8.3935 5.87C8.54697 5.72191 8.75069 5.63204 9.00465 5.60038C9.27977 5.56608 9.67392 5.53844 10.1871 5.51745C10.5707 5.49112 10.9741 5.45157 11.3974 5.39881C11.8418 5.3434 12.1169 5.30911 12.2227 5.29591C12.4238 5.35682 12.6684 5.42304 12.9567 5.49455C13.2424 5.54491 13.4963 5.59922 13.7185 5.65749C13.9619 5.71312 14.0875 5.77268 14.0954 5.83617C14.1112 5.96315 14.1641 6.04252 14.254 6.0743C14.3625 6.08227 14.471 6.09024 14.5794 6.09821C14.7275 6.07974 14.9431 6.17108 15.2261 6.37221C15.5064 6.55218 15.8053 6.79433 16.1226 7.09864C16.4373 7.38179 16.6911 7.69401 16.8841 8.03532C17.0983 8.37398 17.2675 8.69676 17.3917 9.00366C17.5371 9.30791 17.5938 9.76292 17.5619 10.3687C17.5803 10.6888 17.5669 11.0128 17.5219 11.3408C17.498 11.6662 17.4503 11.887 17.3788 12.0034C17.2624 12.1039 17.1592 12.2242 17.0692 12.3644C16.9792 12.5045 16.9408 12.6275 16.954 12.7334C16.9645 12.818 16.9116 12.9965 16.7951 13.269C16.676 13.5202 16.5198 13.8191 16.3266 14.1656C16.1334 14.512 15.919 14.8611 15.6834 15.2129C15.4479 15.5646 15.2177 15.8727 14.9927 16.1372C14.7598 16.5101 14.4714 16.8684 14.1274 17.2122C13.8045 17.5533 13.5068 17.8376 13.2343 18.065C12.7157 18.3876 12.1336 18.718 11.4881 19.0564C10.8637 19.3922 10.2552 19.6829 9.66256 19.9287C9.0911 20.1719 8.603 20.308 8.19826 20.337C7.59508 20.4981 7.20354 20.6329 7.02362 20.7413C6.86223 20.8259 6.75768 21.0216 6.70997 21.3284C6.63845 21.6168 6.56825 21.9157 6.49937 22.2251C6.44901 22.5108 6.43043 22.7065 6.44362 22.8124C6.41185 22.9023 6.33901 23.18 6.22511 23.6455C6.12974 24.0873 6.02243 24.6057 5.9032 25.2009C5.80513 25.7934 5.70574 26.3753 5.60503 26.9467C5.50432 27.518 5.43406 27.9888 5.39426 28.3592C5.34655 28.666 5.26184 28.8485 5.14013 28.9066C5.02107 28.986 4.86631 29.0375 4.67584 29.0612ZM7.38537 18.7297C7.48057 18.8038 7.80992 18.7735 8.37341 18.6387C8.9369 18.504 9.53084 18.2688 10.1552 17.933C10.56 17.7321 10.9609 17.4995 11.3577 17.2351C11.7758 16.9681 12.17 16.6825 12.5405 16.3784C12.7336 16.2039 13.0181 15.8998 13.3939 15.4661C13.7696 15.0324 14.1362 14.5246 14.4935 13.9428C14.5438 13.829 14.6245 13.6148 14.7357 13.3C14.8655 12.9615 14.9767 12.6467 15.0694 12.3558C15.2229 12.0358 15.3593 11.5782 15.4785 10.983C15.5951 10.3667 15.5768 9.87468 15.4234 9.50693C15.249 8.96988 14.9106 8.49627 14.4081 8.08608C13.903 7.65474 13.3331 7.39267 12.6982 7.29987C12.2221 7.27326 11.8253 7.27974 11.5078 7.31932C11.2116 7.35625 10.8875 7.42889 10.5356 7.53723C10.2102 7.68526 9.97472 7.86506 9.82916 8.07663C9.70476 8.28557 9.55384 8.71273 9.37639 9.35812C9.26518 9.67287 9.11028 10.1543 8.91167 10.8023C8.71042 11.4292 8.54754 12.019 8.42303 12.5718C8.21622 14.0161 7.97907 15.217 7.71158 16.1745C7.46262 17.1082 7.31032 17.6967 7.25469 17.94C7.30487 18.1702 7.3154 18.3408 7.28626 18.4519C7.25449 18.5418 7.28752 18.6344 7.38537 18.7297Z" fill="white"/>
</g>
<defs>
<linearGradient id="paint0_linear_73_49" x1="68.0665" y1="23.1722" x2="107.279" y2="18.2097" gradientUnits="userSpaceOnUse">
<stop stop-color="#CD5E04"/>
<stop offset="1" stop-color="white"/>
</linearGradient>
<clipPath id="clip0_73_49">
<rect width="114" height="32" fill="white"/>
</clipPath>
</defs>
</svg>
